<?xml version="1.0" encoding="utf-8"?>
<!-- Generator: Adobe Illustrator 21.0.0, SVG Export Plug-In . SVG Version: 6.00 Build 0)  -->
<!DOCTYPE svg PUBLIC "-//W3C//DTD SVG 1.1//EN" "http://www.w3.org/Graphics/SVG/1.1/DTD/svg11.dtd">
<svg version="1.1" id="Layer_1" xmlns="http://www.w3.org/2000/svg" xmlns:xlink="http://www.w3.org/1999/xlink" x="0px" y="0px"
	 viewBox="0 0 390.7 38.4" style="enable-background:new 0 0 390.7 38.4;" xml:space="preserve">
<style type="text/css">
	.st0{fill:#003050;}
	.st1{fill:#531D2D;}
</style>
<g>
	<path class="st0" d="M0,1.2h9.2l7.3,17l4.4-11.3l-2.3-5.7h9.1l7.2,16.9l6.6-16.9h9.2l-15,37.2h-1.2l-8.9-20.8L17,38.4h-1.1L0,1.2z"
		/>
	<path class="st0" d="M72.1,0c11.3,0,19.4,8.5,19.4,19.2c0,10.7-8,19.2-19.4,19.2c-11.4,0-19.4-8.5-19.4-19.2
		C52.7,8.5,60.7,0,72.1,0z M72.1,30.1c6.4,0,10.4-4.8,10.4-10.9c0-6.1-4.1-10.9-10.4-10.9c-6.4,0-10.4,4.8-10.4,10.9
		C61.7,25.3,65.7,30.1,72.1,30.1z"/>
	<path class="st0" d="M97.6,1.2h15.1c7.7,0,12.8,4.7,12.8,11.5c0,6.3-3.2,9.8-8.5,11.2l9.7,13.4h-11l-9.2-13.4v13.4h-8.8V1.2z
		 M113.5,16.8c2,0,3.3-2,3.3-4.1s-1.6-4-3.5-4h-6.8v8.1H113.5z"/>
	<path class="st0" d="M129.8,1.2h8.8v16.1h0.1l10.4-16.1h9.7l-12.4,17.1l13,18.9h-9.7l-11-17.5h-0.1v17.5h-8.8V1.2z"/>
	<path class="st1" d="M178.5,0h1.6l17.6,37.2h-9.5l-1.8-3.7h-14.2l-1.7,3.7H161L178.5,0z M183.4,27.2l-4.1-9.1h-0.1l-4.2,9.1H183.4z
		"/>
	<path class="st1" d="M201.5,1.2h8.2l9.2,19.4l9.2-19.4h8.1v36h-8.8v-16l-7.9,17.2h-1.4l-7.9-17.3v16.1h-8.8V1.2z"/>
	<path class="st1" d="M242,1.2h23.8V9h-15v6.5h13.9v7.7h-13.9v6.5h15.7v7.6H242V1.2z"/>
	<path class="st1" d="M270.8,1.2h15.1c7.7,0,12.8,4.7,12.8,11.5c0,6.3-3.2,9.8-8.5,11.2l9.7,13.4h-11l-9.2-13.4v13.4h-8.8V1.2z
		 M286.7,16.8c2,0,3.3-2,3.3-4.1s-1.6-4-3.5-4h-6.8v8.1H286.7z"/>
	<path class="st1" d="M302.9,1.2h8.8v36h-8.8V1.2z"/>
	<path class="st1" d="M337.4,0c6.8,0,11.6,2.6,15.4,6.6l-6.1,5.8c-2.5-2.5-5.8-4-9.4-4c-6.4,0-10.6,4.8-10.6,10.9
		c0,6.1,4.1,10.9,10.6,10.9c3.6,0,6.8-1.6,9.4-4l5.9,5.8c-3.6,3.8-8.6,6.6-15.2,6.6c-11.4,0-19.5-8.5-19.5-19.2
		C317.9,8.5,326,0,337.4,0z"/>
	<path class="st1" d="M371.5,0h1.6l17.6,37.2h-9.5l-1.8-3.7h-14.2l-1.7,3.7h-9.5L371.5,0z M376.4,27.2l-4.1-9.1h-0.1l-4.2,9.1H376.4
		z"/>
</g>
</svg>
